<?xml version="1.0" standalone="no"?>
<!DOCTYPE svg PUBLIC "-//W3C//DTD SVG 20010904//EN"
 "http://www.w3.org/TR/2001/REC-SVG-20010904/DTD/svg10.dtd">
<svg version="1.0" xmlns="http://www.w3.org/2000/svg"
 width="1332.000000pt" height="748.000000pt" viewBox="0 0 1332.000000 748.000000"
 preserveAspectRatio="xMidYMid meet">

<g transform="translate(0.000000,748.000000) scale(0.100000,-0.100000)"
fill="#000000" stroke="none">
<path d="M8844 4538 c4 -1182 7 -1378 25 -1378 4 0 8 -17 9 -37 2 -21 7 -39
12 -41 6 -2 10 -12 10 -23 0 -10 5 -19 10 -19 6 0 10 -9 10 -19 0 -23 40 -101
52 -101 4 0 8 -7 8 -16 0 -19 166 -184 186 -184 8 0 14 -4 14 -10 0 -5 6 -10
13 -10 18 0 67 -24 67 -32 0 -5 14 -8 30 -8 17 0 30 -4 30 -10 0 -5 18 -10 40
-10 22 0 40 -4 40 -10 0 -7 143 -10 410 -10 l410 0 0 214 c0 186 -2 215 -16
220 -9 3 -163 6 -342 6 -338 0 -388 5 -432 43 -11 9 -25 17 -31 17 -16 0 -39
26 -39 44 0 9 -3 16 -8 16 -8 0 -26 40 -38 85 -4 17 -9 344 -11 728 -3 598 -1
700 11 713 12 12 85 14 460 14 l446 0 0 218 0 217 -433 0 c-237 0 -444 4 -459
8 l-28 7 0 315 0 315 -230 0 -230 0 4 -1262z"/>
<path d="M1440 5211 c0 -5 -21 -12 -47 -15 -27 -4 -68 -9 -93 -12 -25 -4 -49
-10 -55 -14 -5 -4 -31 -13 -57 -21 -27 -7 -48 -17 -48 -21 0 -4 -13 -8 -30 -8
-16 0 -30 -4 -30 -10 0 -5 -9 -10 -20 -10 -11 0 -20 -4 -20 -10 0 -5 -8 -10
-18 -10 -10 0 -24 -9 -32 -20 -8 -11 -21 -20 -30 -20 -9 0 -22 -9 -30 -20 -8
-11 -20 -20 -27 -20 -17 0 -223 -206 -223 -223 0 -7 -9 -19 -20 -27 -11 -8
-20 -22 -20 -32 0 -10 -4 -18 -10 -18 -5 0 -10 -9 -10 -20 0 -11 -4 -20 -10
-20 -5 0 -10 -9 -10 -20 0 -11 -4 -20 -10 -20 -5 0 -10 -9 -10 -20 0 -11 -4
-20 -10 -20 -5 0 -10 -15 -10 -32 0 -25 -3 -29 -10 -18 -7 11 -10 7 -10 -17 0
-18 -4 -33 -10 -33 -5 0 -10 -18 -10 -40 0 -22 -4 -40 -9 -40 -19 0 -23 -145
-27 -952 l-4 -828 230 0 230 0 3 798 c4 762 8 882 28 882 5 0 9 14 9 30 0 17
5 30 10 30 6 0 10 9 10 20 0 11 5 20 10 20 6 0 10 9 10 20 0 11 5 20 10 20 6
0 10 8 10 18 0 10 9 24 20 32 11 8 20 20 20 28 0 14 116 132 130 132 5 0 15 7
23 14 22 22 138 76 163 76 12 0 24 6 27 13 5 17 289 16 295 -1 2 -7 17 -12 33
-12 16 0 29 -4 29 -10 0 -5 9 -10 20 -10 11 0 20 -5 20 -11 0 -5 4 -8 9 -4 5
3 16 -2 24 -10 9 -8 22 -15 29 -15 8 0 20 -9 28 -20 8 -11 20 -20 27 -20 15 0
103 -84 103 -98 0 -4 8 -17 18 -28 9 -10 23 -31 31 -46 8 -16 18 -28 23 -28 4
0 8 -9 8 -20 0 -11 5 -20 10 -20 6 0 10 -11 10 -24 0 -14 5 -28 10 -31 6 -3
10 -19 10 -36 0 -16 4 -29 9 -29 20 0 24 -125 27 -877 l4 -783 230 0 230 0 -4
823 c-4 798 -8 937 -27 937 -5 0 -9 18 -9 40 0 22 -4 40 -10 40 -5 0 -10 14
-10 30 0 17 -4 30 -10 30 -5 0 -10 7 -10 15 0 8 -4 23 -9 33 -5 9 -24 47 -42
85 -19 37 -37 67 -41 67 -5 0 -8 8 -8 18 0 10 -9 24 -20 32 -11 8 -20 20 -20
27 0 16 -165 183 -180 183 -6 0 -22 11 -36 25 -14 14 -43 33 -65 43 -21 9 -39
20 -39 24 0 5 -8 8 -18 8 -10 0 -24 9 -32 20 -8 12 -26 20 -42 20 -15 0 -28 5
-28 10 0 6 -9 10 -20 10 -11 0 -39 9 -63 19 -41 19 -76 26 -184 37 -29 3 -53
10 -53 15 0 5 -54 9 -120 9 -66 0 -120 -4 -120 -9z"/>
<path d="M6940 5211 c0 -5 -28 -11 -62 -15 -116 -11 -153 -17 -185 -32 -17 -8
-45 -17 -62 -20 -17 -4 -31 -10 -31 -15 0 -5 -13 -9 -30 -9 -16 0 -30 -4 -30
-10 0 -5 -9 -10 -20 -10 -11 0 -20 -4 -20 -10 0 -5 -9 -10 -19 -10 -11 0 -21
-3 -23 -7 -1 -5 -24 -19 -50 -32 -27 -13 -48 -28 -48 -33 0 -4 -7 -8 -16 -8
-8 0 -33 -18 -54 -40 -21 -22 -43 -40 -48 -40 -14 0 -122 -106 -122 -120 0 -6
-18 -29 -40 -50 -22 -21 -40 -45 -40 -52 0 -7 -9 -20 -20 -28 -11 -8 -20 -20
-20 -28 0 -7 -9 -22 -20 -34 -11 -12 -20 -28 -20 -35 0 -7 -4 -13 -10 -13 -5
0 -10 -9 -10 -20 0 -11 -4 -20 -10 -20 -5 0 -10 -9 -10 -20 0 -11 -4 -20 -10
-20 -5 0 -10 -13 -10 -30 0 -16 -4 -30 -10 -30 -5 0 -10 -9 -10 -20 0 -11 -4
-20 -10 -20 -5 0 -10 -13 -10 -29 0 -16 -4 -31 -10 -33 -5 -1 -10 -20 -12 -40
-1 -21 -6 -38 -10 -38 -4 0 -8 -13 -8 -30 0 -16 -4 -30 -10 -30 -6 0 -10 -33
-10 -80 0 -47 -4 -80 -10 -80 -7 0 -10 -433 -10 -1280 l0 -1280 230 0 230 0 0
1210 c0 800 3 1210 10 1210 6 0 10 33 10 80 0 47 4 80 10 80 6 0 10 18 10 39
0 22 5 43 10 46 6 3 10 17 10 30 0 13 5 27 10 30 6 3 10 17 10 30 0 13 5 27
10 30 6 3 10 17 10 31 0 13 5 24 10 24 6 0 10 9 10 20 0 11 5 20 10 20 6 0 10
9 10 20 0 11 4 20 8 20 5 0 15 12 23 28 8 15 22 34 31 43 10 9 18 22 18 28 0
13 125 141 138 141 4 0 17 8 28 18 24 22 102 62 120 62 8 0 14 5 14 10 0 6 9
10 19 10 11 0 23 5 26 10 3 6 21 10 40 10 18 0 35 6 38 13 3 9 47 12 175 12
123 0 174 -3 184 -12 6 -7 31 -13 55 -13 24 0 43 -4 43 -10 0 -5 9 -10 20 -10
11 0 20 -4 20 -8 0 -4 12 -9 27 -10 15 -1 30 -7 34 -13 3 -6 9 -10 13 -9 11 2
66 -24 66 -32 0 -5 6 -8 14 -8 20 0 226 -205 226 -224 0 -9 5 -16 10 -16 6 0
10 -6 10 -13 0 -7 9 -23 20 -35 11 -12 20 -28 20 -37 0 -8 5 -15 10 -15 6 0
10 -13 10 -30 0 -16 5 -30 10 -30 6 0 10 -9 10 -20 0 -11 5 -20 10 -20 6 0 10
-18 10 -40 0 -22 4 -40 9 -40 20 0 41 -364 22 -383 -6 -6 -11 -30 -11 -54 0
-24 -4 -43 -10 -43 -5 0 -10 -23 -10 -51 0 -31 -4 -48 -10 -44 -6 4 -10 -5
-10 -19 0 -14 -4 -26 -10 -26 -5 0 -10 -6 -10 -14 0 -17 -42 -100 -52 -104 -5
-2 -8 -10 -8 -19 0 -8 -13 -28 -30 -43 -16 -15 -30 -33 -30 -39 0 -15 -86
-101 -101 -101 -6 0 -24 -13 -39 -30 -15 -16 -35 -30 -43 -30 -9 0 -17 -3 -19
-7 -5 -13 -88 -53 -108 -53 -11 0 -21 -4 -24 -9 -3 -5 -20 -11 -38 -14 -18 -3
-67 -13 -108 -22 -82 -18 -234 -16 -325 5 -27 6 -66 14 -85 17 -19 3 -39 9
-45 13 -5 4 -31 13 -57 21 -27 7 -48 17 -48 21 0 4 -6 8 -13 8 -18 0 -67 24
-67 33 0 4 -9 7 -20 7 -11 0 -20 5 -20 11 0 5 -4 8 -9 4 -5 -3 -16 2 -24 10
-9 8 -23 15 -31 15 -9 0 -16 3 -16 8 0 4 -9 13 -20 20 -20 12 -20 10 -20 -231
l0 -242 38 -19 c20 -10 45 -22 54 -27 10 -5 25 -9 33 -9 8 0 15 -4 15 -10 0
-5 9 -10 20 -10 11 0 20 -4 20 -10 0 -5 14 -10 30 -10 17 0 30 -4 30 -10 0 -5
16 -10 35 -10 19 0 43 -4 53 -9 26 -13 109 -31 145 -31 18 0 38 -5 43 -10 14
-14 330 -7 404 9 30 7 72 15 93 18 20 3 40 9 43 14 3 5 18 9 35 9 16 0 29 5
29 10 0 6 9 10 20 10 11 0 20 5 20 10 0 6 12 10 26 10 14 0 32 7 40 15 9 8 27
18 42 22 15 3 34 14 43 25 9 10 24 18 33 18 9 0 16 5 16 10 0 6 4 10 10 10 10
0 38 21 76 58 13 12 27 22 33 22 13 0 181 166 181 179 0 6 13 25 30 43 17 17
30 36 30 42 0 6 9 18 20 26 11 8 20 22 20 32 0 10 5 18 10 18 6 0 10 9 10 20
0 11 5 20 10 20 6 0 10 9 10 20 0 11 5 20 10 20 6 0 10 9 10 20 0 11 5 20 10
20 6 0 10 9 10 20 0 11 5 20 10 20 6 0 10 14 10 30 0 17 5 30 10 30 6 0 10 9
10 20 0 11 5 20 10 20 6 0 10 18 10 40 0 22 4 40 9 40 15 0 23 105 23 310 0
212 -8 330 -23 330 -5 0 -9 18 -9 40 0 22 -4 40 -10 40 -5 0 -10 13 -10 29 0
17 -4 33 -10 36 -5 3 -10 19 -10 35 0 16 -4 32 -10 35 -5 3 -10 15 -10 26 0
10 -4 19 -10 19 -5 0 -10 11 -10 24 0 14 -4 28 -10 31 -5 3 -10 15 -10 26 0
10 -4 19 -10 19 -5 0 -10 9 -10 20 0 11 -4 20 -10 20 -5 0 -10 7 -10 15 0 8
-4 15 -10 15 -5 0 -10 7 -10 15 0 8 -4 15 -10 15 -5 0 -10 6 -10 13 0 6 -11
25 -25 41 -14 16 -25 33 -25 38 0 13 -240 248 -253 248 -7 0 -19 9 -27 20 -8
11 -20 20 -27 20 -7 0 -13 5 -13 10 0 6 -7 10 -15 10 -8 0 -15 5 -15 10 0 6
-9 10 -20 10 -11 0 -20 5 -20 10 0 6 -9 10 -20 10 -11 0 -20 5 -20 10 0 6 -9
10 -20 10 -11 0 -20 5 -20 10 0 6 -9 10 -20 10 -11 0 -20 5 -20 10 0 6 -11 10
-25 10 -14 0 -25 5 -25 10 0 6 -8 10 -17 10 -16 0 -69 15 -108 31 -20 8 -68
15 -177 25 -32 3 -58 10 -58 15 0 5 -56 9 -125 9 -69 0 -125 -4 -125 -9z"/>
<path d="M3171 5143 c-15 -16 -16 -1623 -1 -1623 6 0 10 -33 10 -80 0 -47 4
-80 10 -80 6 0 10 -22 10 -50 0 -27 5 -50 10 -50 6 0 10 -13 10 -30 0 -16 5
-30 10 -30 6 0 10 -13 10 -30 0 -16 5 -30 10 -30 6 0 10 -9 10 -20 0 -11 5
-20 10 -20 6 0 10 -9 10 -20 0 -11 5 -20 10 -20 6 0 10 -9 10 -20 0 -11 5 -20
10 -20 6 0 10 -6 10 -14 0 -7 14 -27 30 -44 17 -18 30 -36 30 -41 0 -13 110
-121 123 -121 5 0 22 -13 37 -30 15 -16 34 -30 42 -30 7 0 20 -9 28 -20 8 -11
22 -20 32 -20 10 0 18 -4 18 -10 0 -5 9 -10 20 -10 11 0 20 -4 20 -10 0 -5 9
-10 20 -10 11 0 20 -4 20 -10 0 -5 9 -10 20 -10 11 0 20 -4 20 -10 0 -5 14
-10 30 -10 17 0 30 -4 30 -10 0 -5 11 -10 24 -10 14 0 28 -5 31 -10 3 -5 17
-10 30 -10 13 0 27 -4 30 -10 3 -5 15 -10 26 -10 19 0 19 -12 19 -550 l0 -550
230 0 230 0 0 540 0 540 27 17 c34 22 91 43 121 43 12 0 22 5 22 10 0 6 11 10
25 10 14 0 25 5 25 10 0 6 9 10 20 10 11 0 20 4 20 9 0 5 13 11 29 14 16 3 36
13 44 22 9 8 21 15 27 15 6 0 20 9 32 20 12 11 28 20 35 20 7 0 13 5 13 10 0
6 7 10 16 10 18 0 184 166 184 184 0 6 9 18 20 26 11 8 20 21 20 30 0 9 9 22
20 30 11 8 20 22 20 32 0 10 5 18 10 18 6 0 10 14 10 30 0 17 5 30 10 30 6 0
10 9 10 20 0 11 4 20 9 20 5 0 12 17 15 38 16 90 19 102 26 102 17 0 22 196
23 1003 l2 829 -226 1 c-166 2 -229 -1 -238 -10 -8 -9 -11 -244 -11 -858 0
-557 -3 -845 -10 -845 -5 0 -10 -9 -10 -20 0 -28 -23 -100 -32 -100 -5 0 -8
-9 -8 -20 0 -11 -4 -20 -10 -20 -5 0 -10 -7 -10 -16 0 -8 -4 -12 -10 -9 -5 3
-10 -1 -10 -10 0 -19 -114 -134 -153 -154 -15 -8 -27 -18 -27 -23 0 -4 -9 -8
-20 -8 -11 0 -20 -4 -20 -10 0 -5 -13 -10 -30 -10 -16 0 -30 -4 -30 -9 0 -23
-259 -38 -341 -20 -33 7 -59 16 -59 19 0 3 -17 7 -37 8 -21 2 -39 7 -41 12 -2
6 -12 10 -21 10 -10 0 -26 9 -36 20 -10 11 -23 20 -29 20 -7 0 -18 9 -26 20
-8 11 -20 20 -27 20 -7 0 -13 4 -13 8 0 4 -15 23 -32 43 -18 19 -39 47 -47 62
-8 15 -18 27 -23 27 -4 0 -8 9 -8 20 0 11 -4 20 -10 20 -5 0 -10 14 -10 30 0
17 -4 30 -10 30 -5 0 -10 18 -10 40 0 22 -4 40 -10 40 -7 0 -10 289 -10 848
l0 848 -229 0 c-165 -1 -231 -4 -240 -13z"/>
<path d="M10560 4318 c0 -552 3 -838 10 -838 6 0 10 -30 10 -70 0 -40 4 -70
10 -70 6 0 10 -18 10 -40 0 -22 5 -40 10 -40 6 0 10 -18 10 -40 0 -22 5 -40
10 -40 6 0 10 -9 10 -20 0 -11 4 -20 9 -20 5 0 11 -13 14 -29 3 -16 13 -36 22
-44 8 -9 15 -23 15 -31 0 -9 5 -16 10 -16 6 0 10 -8 10 -18 0 -10 9 -24 20
-32 11 -8 20 -20 20 -27 0 -16 145 -163 160 -163 6 0 24 -13 42 -30 17 -16 37
-30 44 -30 8 0 14 -4 14 -10 0 -5 9 -10 20 -10 11 0 20 -4 20 -10 0 -5 9 -10
20 -10 11 0 20 -4 20 -10 0 -5 9 -10 20 -10 11 0 20 -4 20 -10 0 -5 9 -10 20
-10 11 0 20 -4 20 -10 0 -5 14 -10 30 -10 17 0 30 -4 30 -10 0 -5 11 -10 24
-10 14 0 28 -5 31 -10 3 -6 18 -10 33 -10 16 0 34 -8 42 -19 7 -11 17 -18 22
-15 4 3 8 -240 8 -540 l0 -546 230 0 230 0 0 550 c0 484 2 550 15 550 8 0 23
4 33 9 9 5 38 15 65 23 26 7 47 16 47 20 0 4 14 8 30 8 17 0 30 5 30 10 0 6 9
10 20 10 11 0 20 5 20 10 0 6 9 10 20 10 11 0 20 5 20 10 0 6 9 10 20 10 11 0
20 5 20 10 0 6 9 10 20 10 11 0 20 4 20 9 0 5 9 12 19 16 11 3 34 19 52 36 17
16 35 29 40 29 14 0 149 138 149 152 0 8 9 20 20 28 11 8 20 22 20 32 0 10 5
18 10 18 6 0 10 7 10 16 0 8 7 22 15 31 8 8 13 19 10 24 -4 5 -1 9 4 9 6 0 11
9 11 20 0 11 5 20 10 20 6 0 10 9 10 19 0 11 5 23 10 26 6 3 10 22 10 41 0 19
5 34 10 34 6 0 10 18 10 40 0 22 4 40 9 40 17 0 22 171 27 995 l5 820 -241 0
-240 0 0 -857 c0 -565 -3 -858 -10 -858 -5 0 -10 -13 -10 -30 0 -16 -4 -30
-10 -30 -5 0 -10 -13 -10 -30 0 -16 -4 -30 -10 -30 -5 0 -10 -8 -10 -18 0 -10
-9 -24 -20 -32 -11 -8 -20 -20 -20 -27 0 -16 -125 -143 -141 -143 -6 0 -19 -8
-28 -18 -14 -16 -62 -33 -196 -72 -61 -17 -335 0 -335 21 0 5 -13 9 -30 9 -16
0 -30 5 -30 10 0 6 -7 10 -15 10 -9 0 -30 10 -48 23 -53 37 -177 164 -177 181
0 9 -4 16 -10 16 -5 0 -10 9 -10 20 0 11 -4 20 -10 20 -5 0 -10 14 -10 30 0
17 -4 30 -10 30 -5 0 -10 14 -10 30 0 17 -4 30 -10 30 -7 0 -10 289 -10 846 0
663 -3 848 -12 857 -9 9 -80 12 -241 12 l-227 0 0 -837z"/>
</g>
</svg>
